<svg height="42" viewBox="-.5 .5 42 42" width="42" xmlns="http://www.w3.org/2000/svg"><path d="m6.5 17.5h6v17h-6zm20.141-.58c1.689.01 3.85.84 5.17 2.18 1.369 1.53 1.689 3.259 1.689 5.4v10h-6v-9.29c0-1.7-.689-3.771-2.939-3.84-1.32.021-2.17.78-2.801 2.06-.18.42-.14.891-.14 1.36l-.12 9.71h-6v-17h6l.12 2.22c.409-.68.979-1.319 1.69-1.829.96-.691 2.081-.952 3.331-.971zm-17.141-7.57c1.54.021 3.07 1.23 3.13 3.07.04 1.641-1.39 3.07-3.17 3.07h-.04c-1.53 0-3.03-1.25-3.1-3.07.03-1.62 1.39-3.029 3.18-3.07zm-9-7.85v39h39v-39z"/></svg>